{
  "accessors": [
    {
      "bufferView": 2,
      "componentType": 5126,
      "count": 65532,
      "max": [
        1.7324600219726563,
        1.0412230491638184,
        1.0955380201339722
      ],
      "min": [
        -1.7326209545135498,
        -1.0412230491638184,
        -1.0955380201339722
      ],
      "type": "VEC3"
    },
    {
      "bufferView": 2,
      "byteOffset": 786384,
      "componentType": 5126,
      "count": 65532,
      "max": [
        0.9999935030937195,
        0.9999944567680359,
        0.9999884963035583
      ],
      "min": [
        -0.9999960064888,
        -0.999991774559021,
        -0.9999911189079285
      ],
      "type": "VEC3"
    },
    {
      "bufferView": 3,
      "componentType": 5126,
      "count": 65532,
      "max": [
        0.9999860525131226,
        0.9999759197235107,
        0.9999995231628418,
        1.0
      ],
      "min": [
        -0.9999893307685852,
        -0.9999777674674988,
        -0.9999808669090271,
        -1.0
      ],
      "type": "VEC4"
    },
    {
      "bufferView": 1,
      "componentType": 5126,
      "count": 65532,
      "max": [
        0.9995120167732239,
        0.9995120167732239
      ],
      "min": [
        0.0004879999905824661,
        0.0004879999905824661
      ],
      "type": "VEC2"
    },
    {
      "bufferView": 0,
      "componentType": 5125,
      "count": 333183,
      "type": "SCALAR"
    },
    {
      "bufferView": 2,
      "byteOffset": 1572768,
      "componentType": 5126,
      "count": 18609,
      "max": [
        1.7326209545135498,
        1.0402799844741821,
        1.0780669450759888
      ],
      "min": [
        -0.2971569895744324,
        -1.0098299980163574,
        -1.0955380201339722
      ],
      "type": "VEC3"
    },
    {
      "bufferView": 2,
      "byteOffset": 1796076,
      "componentType": 5126,
      "count": 18609,
      "max": [
        0.9999935030937195,
        0.9999692440032959,
        0.9999799728393555
      ],
      "min": [
        -0.9998252391815186,
        -0.9999138712882996,
        -0.9999606609344482
      ],
      "type": "VEC3"
    },
    {
      "bufferView": 3,
      "byteOffset": 1048512,
      "componentType": 5126,
      "count": 18609,
      "max": [
        0.9999929070472717,
        0.9999662041664124,
        0.9999117851257324,
        1.0
      ],
      "min": [
        -0.9997045397758484,
        -0.9999121427536011,
        -0.9999188780784607,
        -1.0
      ],
      "type": "VEC4"
    },
    {
      "bufferView": 1,
      "byteOffset": 524256,
      "componentType": 5126,
      "count": 18609,
      "max": [
        0.9994009733200073,
        0.9971100091934204
      ],
      "min": [
        0.0004879999905824661,
        0.0004879999905824661
      ],
      "type": "VEC2"
    },
    {
      "bufferView": 0,
      "byteOffset": 1332732,
      "componentType": 5125,
      "count": 80931,
      "type": "SCALAR"
    }
  ],
  "asset": {
    "extras": {
      "author": "Andrea Spognetta (Spogna) (https://sketchfab.com/spogna)",
      "license": "CC-BY-4.0 (http://creativecommons.org/licenses/by/4.0/)",
      "source": "https://sketchfab.com/3d-models/old-camera-bag-rawscan-788f8b75874f417ebde498ffd231410c",
      "title": "Old Camera Bag .::RAWscan::."
    },
    "generator": "Sketchfab-10.59.0",
    "version": "2.0"
  },
  "bufferViews": [
    {
      "buffer": 0,
      "byteLength": 1656456,
      "name": "floatBufferViews",
      "target": 34963
    },
    {
      "buffer": 0,
      "byteLength": 673128,
      "byteOffset": 1656456,
      "byteStride": 8,
      "name": "floatBufferViews",
      "target": 34962
    },
    {
      "buffer": 0,
      "byteLength": 2019384,
      "byteOffset": 2329584,
      "byteStride": 12,
      "name": "floatBufferViews",
      "target": 34962
    },
    {
      "buffer": 0,
      "byteLength": 1346256,
      "byteOffset": 4348968,
      "byteStride": 16,
      "name": "floatBufferViews",
      "target": 34962
    }
  ],
  "buffers": [
    {
      "byteLength": 5695224,
      "uri": "scene.bin"
    }
  ],
  "images": [
    {
      "uri": "textures/material_0_baseColor.jpeg"
    },
    {
      "uri": "textures/material_0_metallicRoughness.png"
    },
    {
      "uri": "textures/material_0_normal.jpeg"
    }
  ],
  "materials": [
    {
      "doubleSided": true,
      "name": "material_0",
      "normalTexture": {
        "index": 2
      },
      "occlusionTexture": {
        "index": 1
      },
      "pbrMetallicRoughness": {
        "baseColorTexture": {
          "index": 0
        },
        "metallicFactor": 0.0,
        "metallicRoughnessTexture": {
          "index": 1
        },
        "roughnessFactor": 0.0
      }
    }
  ],
  "meshes": [
    {
      "name": "Object_0",
      "primitives": [
        {
          "attributes": {
            "NORMAL": 1,
            "POSITION": 0,
            "TANGENT": 2,
            "TEXCOORD_0": 3
          },
          "indices": 4,
          "material": 0,
          "mode": 4
        }
      ]
    },
    {
      "name": "Object_1",
      "primitives": [
        {
          "attributes": {
            "NORMAL": 6,
            "POSITION": 5,
            "TANGENT": 7,
            "TEXCOORD_0": 8
          },
          "indices": 9,
          "material": 0,
          "mode": 4
        }
      ]
    }
  ],
  "nodes": [
    {
      "children": [
        1
      ],
      "matrix": [
        0.9995705485343933,
        0.029304038733243942,
        6.506803703230966e-18,
        0.0,
        0.029304038733243942,
        -0.9995705485343933,
        -6.489080630688078e-16,
        0.0,
        -8.673617379884035e-18,
        6.488678951782623e-16,
        -1.0,
        0.0,
        -1.1325112581062058e-07,
        2.2440995053329983e-06,
        -5.483627319335937e-06,
        1.0
      ],
      "name": "Sketchfab_model"
    },
    {
      "children": [
        2,
        3
      ],
      "name": "bag.obj.cleaner.materialmerger.gles"
    },
    {
      "mesh": 0,
      "name": "Object_2"
    },
    {
      "mesh": 1,
      "name": "Object_3"
    }
  ],
  "samplers": [
    {
      "magFilter": 9729,
      "minFilter": 9987,
      "wrapS": 10497,
      "wrapT": 10497
    }
  ],
  "scene": 0,
  "scenes": [
    {
      "name": "Sketchfab_Scene",
      "nodes": [
        0
      ]
    }
  ],
  "textures": [
    {
      "sampler": 0,
      "source": 0
    },
    {
      "sampler": 0,
      "source": 1
    },
    {
      "sampler": 0,
      "source": 2
    }
  ]
}
