{
  "accessors": [
    {
      "bufferView": 2,
      "componentType": 5126,
      "count": 10040,
      "max": [
        0.068048000335693359,
        0.033123031258583069,
        0.089563071727752686
      ],
      "min": [
        -0.07586091011762619,
        -0.085097983479499817,
        -0.00021297112107276917
      ],
      "type": "VEC3"
    },
    {
      "bufferView": 2,
      "byteOffset": 120480,
      "componentType": 5126,
      "count": 10040,
      "max": [
        1,
        1,
        1
      ],
      "min": [
        -1,
        -1,
        -1
      ],
      "type": "VEC3"
    },
    {
      "bufferView": 3,
      "componentType": 5126,
      "count": 10040,
      "max": [
        1,
        1,
        1,
        1
      ],
      "min": [
        -1,
        -1,
        -1,
        -1
      ],
      "type": "VEC4"
    },
    {
      "bufferView": 1,
      "componentType": 5126,
      "count": 10040,
      "max": [
        0.99289411306381226,
        0.99746990203857422
      ],
      "min": [
        0.0025344891473650932,
        0.0025318537373095751
      ],
      "type": "VEC2"
    },
    {
      "bufferView": 0,
      "componentType": 5125,
      "count": 33831,
      "max": [
        10039
      ],
      "min": [
        0
      ],
      "type": "SCALAR"
    },
    {
      "bufferView": 2,
      "byteOffset": 240960,
      "componentType": 5126,
      "count": 617,
      "max": [
        0.012025810778141022,
        0.012064997106790543,
        0.0023333404678851366
      ],
      "min": [
        -0.012933342717587948,
        -0.012025810778141022,
        -0.0017442777752876282
      ],
      "type": "VEC3"
    },
    {
      "bufferView": 2,
      "byteOffset": 248364,
      "componentType": 5126,
      "count": 617,
      "max": [
        0.99923646450042725,
        0.99977952241897583,
        1
      ],
      "min": [
        -0.99964642524719238,
        -0.99923652410507202,
        -2.075472309570614e-07
      ],
      "type": "VEC3"
    },
    {
      "bufferView": 3,
      "byteOffset": 160640,
      "componentType": 5126,
      "count": 617,
      "max": [
        0.99991428852081299,
        0.99923640489578247,
        0.99928581714630127,
        1
      ],
      "min": [
        -0.99976146221160889,
        -0.99962818622589111,
        -0.99928891658782959,
        -1
      ],
      "type": "VEC4"
    },
    {
      "bufferView": 1,
      "byteOffset": 80320,
      "componentType": 5126,
      "count": 617,
      "max": [
        0.93061137199401855,
        0.79281502962112427
      ],
      "min": [
        0.12945127487182617,
        0.058308500796556473
      ],
      "type": "VEC2"
    },
    {
      "bufferView": 0,
      "byteOffset": 135324,
      "componentType": 5125,
      "count": 1947,
      "max": [
        616
      ],
      "min": [
        0
      ],
      "type": "SCALAR"
    },
    {
      "bufferView": 2,
      "byteOffset": 255768,
      "componentType": 5126,
      "count": 825,
      "max": [
        0.01019683200865984,
        0.010196828283369541,
        0.0026000002399086952
      ],
      "min": [
        -0.01019683200865984,
        -0.0097107775509357452,
        -0.0032210650388151407
      ],
      "type": "VEC3"
    },
    {
      "bufferView": 2,
      "byteOffset": 265668,
      "componentType": 5126,
      "count": 825,
      "max": [
        1,
        1,
        1
      ],
      "min": [
        -1,
        -1,
        -1
      ],
      "type": "VEC3"
    },
    {
      "bufferView": 3,
      "byteOffset": 170512,
      "componentType": 5126,
      "count": 825,
      "max": [
        1,
        1,
        0.001476696808822453,
        1
      ],
      "min": [
        -0.99866557121276855,
        -1,
        -0.99999892711639404,
        -1
      ],
      "type": "VEC4"
    },
    {
      "bufferView": 1,
      "byteOffset": 85256,
      "componentType": 5126,
      "count": 825,
      "max": [
        0.85488563776016235,
        0.82114577293395996
      ],
      "min": [
        0.041377820074558258,
        0.0025385033804923296
      ],
      "type": "VEC2"
    },
    {
      "bufferView": 0,
      "byteOffset": 143112,
      "componentType": 5125,
      "count": 2184,
      "max": [
        824
      ],
      "min": [
        0
      ],
      "type": "SCALAR"
    },
    {
      "bufferView": 2,
      "byteOffset": 275568,
      "componentType": 5126,
      "count": 627,
      "max": [
        0.032425500452518463,
        0.018150005489587784,
        0.0017693571280688047
      ],
      "min": [
        -0.0071431123651564121,
        -0.0071431086398661137,
        -0.0062288353219628334
      ],
      "type": "VEC3"
    },
    {
      "bufferView": 2,
      "byteOffset": 283092,
      "componentType": 5126,
      "count": 627,
      "max": [
        1,
        0.9999929666519165,
        1
      ],
      "min": [
        -1,
        -1,
        -1
      ],
      "type": "VEC3"
    },
    {
      "bufferView": 3,
      "byteOffset": 183712,
      "componentType": 5126,
      "count": 627,
      "max": [
        0.9999997615814209,
        0.9999997615814209,
        0.68226557970046997,
        1
      ],
      "min": [
        -0.99999147653579712,
        -0.99999642372131348,
        -0.64499360322952271,
        1
      ],
      "type": "VEC4"
    },
    {
      "bufferView": 1,
      "byteOffset": 91856,
      "componentType": 5126,
      "count": 627,
      "max": [
        0.91296708583831787,
        0.98931223154067993
      ],
      "min": [
        0.0025385995395481586,
        0.0027071558870375156
      ],
      "type": "VEC2"
    },
    {
      "bufferView": 0,
      "byteOffset": 151848,
      "componentType": 5125,
      "count": 2196,
      "max": [
        626
      ],
      "min": [
        0
      ],
      "type": "SCALAR"
    },
    {
      "bufferView": 2,
      "byteOffset": 290616,
      "componentType": 5126,
      "count": 1814,
      "max": [
        0.013734951615333557,
        0.0084400000050663948,
        0.0029325769282877445
      ],
      "min": [
        -0.0084400000050663948,
        -0.0084400009363889694,
        -0.0023500001989305019
      ],
      "type": "VEC3"
    },
    {
      "bufferView": 2,
      "byteOffset": 312384,
      "componentType": 5126,
      "count": 1814,
      "max": [
        1,
        1,
        1
      ],
      "min": [
        -1,
        -1,
        -1
      ],
      "type": "VEC3"
    },
    {
      "bufferView": 3,
      "byteOffset": 193744,
      "componentType": 5126,
      "count": 1814,
      "max": [
        0.99999892711639404,
        0.9989660382270813,
        0.99999856948852539,
        1
      ],
      "min": [
        -0.99996548891067505,
        -0.99933552742004395,
        -1,
        -1
      ],
      "type": "VEC4"
    },
    {
      "bufferView": 1,
      "byteOffset": 96872,
      "componentType": 5126,
      "count": 1814,
      "max": [
        0.99730098247528076,
        0.63817602396011353
      ],
      "min": [
        0.0025431469548493624,
        0.038043085485696793
      ],
      "type": "VEC2"
    },
    {
      "bufferView": 0,
      "byteOffset": 160632,
      "componentType": 5125,
      "count": 7590,
      "max": [
        1813
      ],
      "min": [
        0
      ],
      "type": "SCALAR"
    },
    {
      "bufferView": 2,
      "byteOffset": 334152,
      "componentType": 5126,
      "count": 2252,
      "max": [
        0.013661985285580158,
        0.013661972247064114,
        0.0018526806961745024
      ],
      "min": [
        -0.013661923818290234,
        -0.013661934994161129,
        -0.0025013659615069628
      ],
      "type": "VEC3"
    },
    {
      "bufferView": 2,
      "byteOffset": 361176,
      "componentType": 5126,
      "count": 2252,
      "max": [
        1,
        1,
        1
      ],
      "min": [
        -1,
        -1,
        -1
      ],
      "type": "VEC3"
    },
    {
      "bufferView": 3,
      "byteOffset": 222768,
      "componentType": 5126,
      "count": 2252,
      "max": [
        0.99999880790710449,
        0.99999982118606567,
        1,
        1
      ],
      "min": [
        -0.99999946355819702,
        -1,
        -1,
        -1
      ],
      "type": "VEC4"
    },
    {
      "bufferView": 1,
      "byteOffset": 111384,
      "componentType": 5126,
      "count": 2252,
      "max": [
        0.99745219945907593,
        0.96028280258178711
      ],
      "min": [
        0.14488135278224945,
        0.14974141120910645
      ],
      "type": "VEC2"
    },
    {
      "bufferView": 0,
      "byteOffset": 190992,
      "componentType": 5125,
      "count": 6204,
      "max": [
        2251
      ],
      "min": [
        0
      ],
      "type": "SCALAR"
    }
  ],
  "asset": {
    "extras": {
      "author": "AleixoAlonso (https://sketchfab.com/AleixoAlonso)",
      "license": "CC-BY-4.0 (http://creativecommons.org/licenses/by/4.0/)",
      "source": "https://sketchfab.com/3d-models/canon-at-1-retro-camera-9de66868d0f240e985da00c9480bfc82",
      "title": "Canon AT-1 Retro Camera"
    },
    "generator": "Sketchfab-10.39.1",
    "version": "2.0"
  },
  "bufferViews": [
    {
      "buffer": 0,
      "byteLength": 215808,
      "byteOffset": 0,
      "name": "floatBufferViews",
      "target": 34963
    },
    {
      "buffer": 0,
      "byteLength": 129400,
      "byteOffset": 215808,
      "byteStride": 8,
      "name": "floatBufferViews",
      "target": 34962
    },
    {
      "buffer": 0,
      "byteLength": 388200,
      "byteOffset": 345208,
      "byteStride": 12,
      "name": "floatBufferViews",
      "target": 34962
    },
    {
      "buffer": 0,
      "byteLength": 258800,
      "byteOffset": 733408,
      "byteStride": 16,
      "name": "floatBufferViews",
      "target": 34962
    }
  ],
  "buffers": [
    {
      "byteLength": 992208,
      "uri": "scene.bin"
    }
  ],
  "images": [
    {
      "uri": "textures/CAM0001_Textures_baseColor.png"
    },
    {
      "uri": "textures/CAM0001_Textures_metallicRoughness.png"
    },
    {
      "uri": "textures/CAM0001_Textures_normal.png"
    }
  ],
  "materials": [
    {
      "alphaMode": "BLEND",
      "doubleSided": true,
      "emissiveFactor": [
        0,
        0,
        0
      ],
      "name": "CAM0001_Textures",
      "normalTexture": {
        "index": 2,
        "scale": 1,
        "texCoord": 0
      },
      "pbrMetallicRoughness": {
        "baseColorFactor": [
          1,
          1,
          1,
          1
        ],
        "baseColorTexture": {
          "index": 0,
          "texCoord": 0
        },
        "metallicFactor": 1,
        "metallicRoughnessTexture": {
          "index": 1,
          "texCoord": 0
        },
        "roughnessFactor": 1
      }
    }
  ],
  "meshes": [
    {
      "name": "#CAM0001_Body_#CAM0001_Textures_0",
      "primitives": [
        {
          "attributes": {
            "NORMAL": 1,
            "POSITION": 0,
            "TANGENT": 2,
            "TEXCOORD_0": 3
          },
          "indices": 4,
          "material": 0,
          "mode": 4
        }
      ]
    },
    {
      "name": "#CAM0001_Battery_Check_#CAM0001_Textures_0",
      "primitives": [
        {
          "attributes": {
            "NORMAL": 6,
            "POSITION": 5,
            "TANGENT": 7,
            "TEXCOORD_0": 8
          },
          "indices": 9,
          "material": 0,
          "mode": 4
        }
      ]
    },
    {
      "name": "#CAM0001_Spool_#CAM0001_Textures_0",
      "primitives": [
        {
          "attributes": {
            "NORMAL": 11,
            "POSITION": 10,
            "TANGENT": 12,
            "TEXCOORD_0": 13
          },
          "indices": 14,
          "material": 0,
          "mode": 4
        }
      ]
    },
    {
      "name": "#CAM0001_Film_Advance_#CAM0001_Textures_0",
      "primitives": [
        {
          "attributes": {
            "NORMAL": 16,
            "POSITION": 15,
            "TANGENT": 17,
            "TEXCOORD_0": 18
          },
          "indices": 19,
          "material": 0,
          "mode": 4
        }
      ]
    },
    {
      "name": "#CAM0001_Shutter_#CAM0001_Textures_0",
      "primitives": [
        {
          "attributes": {
            "NORMAL": 21,
            "POSITION": 20,
            "TANGENT": 22,
            "TEXCOORD_0": 23
          },
          "indices": 24,
          "material": 0,
          "mode": 4
        }
      ]
    },
    {
      "name": "#CAM0001_Shutter_Speed_#CAM0001_Textures_0",
      "primitives": [
        {
          "attributes": {
            "NORMAL": 26,
            "POSITION": 25,
            "TANGENT": 27,
            "TEXCOORD_0": 28
          },
          "indices": 29,
          "material": 0,
          "mode": 4
        }
      ]
    }
  ],
  "nodes": [
    {
      "children": [
        1
      ],
      "name": "RootNode (gltf orientation matrix)",
      "rotation": [
        -0.70710678118654746,
        -0,
        -0,
        0.70710678118654757
      ]
    },
    {
      "children": [
        2
      ],
      "name": "RootNode (model correction matrix)"
    },
    {
      "children": [
        3
      ],
      "matrix": [
        1,
        0,
        0,
        0,
        0,
        0,
        1,
        0,
        0,
        -1,
        0,
        0,
        0,
        0,
        0,
        1
      ],
      "name": "Canon_AT-1.fbx"
    },
    {
      "children": [
        4
      ],
      "name": "RootNode"
    },
    {
      "children": [
        5,
        6,
        8,
        10,
        12,
        14
      ],
      "matrix": [
        1,
        0,
        0,
        0,
        0,
        -1.6292067939183141e-07,
        -0.99999999999998679,
        0,
        0,
        0.99999999999998679,
        -1.6292067939183141e-07,
        0,
        0,
        0,
        0,
        1
      ],
      "name": "#CAM0001_Body"
    },
    {
      "mesh": 0,
      "name": "#CAM0001_Body_#CAM0001_Textures_0"
    },
    {
      "children": [
        7
      ],
      "matrix": [
        1,
        0,
        0,
        0,
        0,
        1,
        -2.646977960169688e-23,
        0,
        0,
        2.646977960169688e-23,
        1,
        0,
        0.05025249719619751,
        0.00094433664344251156,
        0.071744233369827271,
        1
      ],
      "name": "#CAM0001_Battery_Check"
    },
    {
      "mesh": 1,
      "name": "#CAM0001_Battery_Check_#CAM0001_Textures_0"
    },
    {
      "children": [
        9
      ],
      "matrix": [
        1,
        0,
        0,
        0,
        0,
        1,
        -2.646977960169688e-23,
        0,
        0,
        2.646977960169688e-23,
        1,
        0,
        0.05025249719619751,
        0.00094433664344251156,
        0.075193405151367188,
        1
      ],
      "name": "#CAM0001_Spool"
    },
    {
      "mesh": 2,
      "name": "#CAM0001_Spool_#CAM0001_Textures_0"
    },
    {
      "children": [
        11
      ],
      "matrix": [
        1,
        0,
        0,
        0,
        0,
        1,
        -2.646977960169688e-23,
        0,
        0,
        2.646977960169688e-23,
        1,
        0,
        -0.056892577558755875,
        0.00094434508355334401,
        0.076634630560874939,
        1
      ],
      "name": "#CAM0001_Film_Advance"
    },
    {
      "mesh": 3,
      "name": "#CAM0001_Film_Advance_#CAM0001_Textures_0"
    },
    {
      "children": [
        13
      ],
      "matrix": [
        1,
        0,
        0,
        0,
        0,
        1,
        -2.646977960169688e-23,
        0,
        0,
        2.646977960169688e-23,
        1,
        0,
        -0.034967664629220963,
        -0.0064904307946562767,
        0.075949996709823608,
        1
      ],
      "name": "#CAM0001_Shutter"
    },
    {
      "mesh": 4,
      "name": "#CAM0001_Shutter_#CAM0001_Textures_0"
    },
    {
      "children": [
        15
      ],
      "matrix": [
        1,
        0,
        0,
        0,
        0,
        1,
        -2.646977960169688e-23,
        0,
        0,
        2.646977960169688e-23,
        1,
        0,
        -0.056892577558755875,
        0.00094433181220665574,
        0.073013082146644592,
        1
      ],
      "name": "#CAM0001_Shutter_Speed"
    },
    {
      "mesh": 5,
      "name": "#CAM0001_Shutter_Speed_#CAM0001_Textures_0"
    }
  ],
  "samplers": [
    {
      "magFilter": 9729,
      "minFilter": 9987,
      "wrapS": 10497,
      "wrapT": 10497
    }
  ],
  "scene": 0,
  "scenes": [
    {
      "name": "OSG_Scene",
      "nodes": [
        0
      ]
    }
  ],
  "textures": [
    {
      "sampler": 0,
      "source": 0
    },
    {
      "sampler": 0,
      "source": 1
    },
    {
      "sampler": 0,
      "source": 2
    }
  ]
}

